<svg id="Layer_1" data-name="Layer 1" xmlns="http://www.w3.org/2000/svg" viewBox="0 0 295.02 66.1"><defs><style>.cls-1{fill:#fff;}.cls-2{fill:#f58220;}</style></defs><title>TitleCard_LogoWO_Center</title><path class="cls-1" d="M136.56,136.58a5.19,5.19,0,0,1-3.36-1.13c-1.26-1-1.24-2.21-1.24-4.24s0-3.2,1.24-4.24a5.19,5.19,0,0,1,3.36-1.13c2.36,0,4.12,1.14,4.57,3.25h-2a2.47,2.47,0,0,0-2.59-1.81,2.86,2.86,0,0,0-1.89.64c-.63.56-.77,1.17-.77,3.29s.14,2.73.77,3.29a2.86,2.86,0,0,0,1.89.64,2.49,2.49,0,0,0,2.61-1.81h2C140.7,135.44,138.88,136.58,136.56,136.58Z" transform="translate(-34.79 -70.48)"/><path class="cls-1" d="M158.09,136.49l-.88-2.12h-5.06l-.88,2.12h-2.07l4.7-10.56h1.56l4.7,10.56Zm-3.36-8.17-2,4.69h3.94Z" transform="translate(-34.79 -70.48)"/><path class="cls-1" d="M174,132.34h-2.91v4.15h-1.94V125.93H174c2.5,0,4.1,1.36,4.1,3.2S176.54,132.34,174,132.34Zm-.11-5h-2.81v3.52h2.81c1.35,0,2.27-.64,2.27-1.75S175.28,127.37,173.93,127.37Z" transform="translate(-34.79 -70.48)"/><path class="cls-1" d="M187.69,136.49V125.93h1.94v10.56Z" transform="translate(-34.79 -70.48)"/><path class="cls-1" d="M204.51,127.37v9.12h-1.94v-9.12H199v-1.44h9v1.44Z" transform="translate(-34.79 -70.48)"/><path class="cls-1" d="M223.73,136.49l-.88-2.12h-5.06l-.88,2.12h-2.07l4.7-10.56h1.56l4.7,10.56Zm-3.36-8.17-2,4.69h3.94Z" transform="translate(-34.79 -70.48)"/><path class="cls-1" d="M234.81,136.49V125.93h1.94v9.12h6.17v1.44Z" transform="translate(-34.79 -70.48)"/><path class="cls-1" d="M74.53,91.5v25.93H68V91.5H59.26V86h24V91.5Z" transform="translate(-34.79 -70.48)"/><path class="cls-1" d="M89.52,117.43V86h6.53v31.4Z" transform="translate(-34.79 -70.48)"/><path class="cls-1" d="M117.57,91.5v25.93H111V91.5H102.3V86h24V91.5Z" transform="translate(-34.79 -70.48)"/><path class="cls-1" d="M132.56,117.43V86h6.53V112h15.18v5.47Z" transform="translate(-34.79 -70.48)"/><path class="cls-1" d="M160.52,117.43V86h22V91.5H167v7.37h13.2v5.47H167V112h15.51v5.47Z" transform="translate(-34.79 -70.48)"/><path class="cls-2" d="M200.13,117.7a12.75,12.75,0,0,1-9-3.44c-3.38-3.18-3.29-7.1-3.29-12.52s-.1-9.35,3.29-12.53a12.75,12.75,0,0,1,9-3.44c6.25,0,11.14,3.35,12.31,9.92h-6.63a5.44,5.44,0,0,0-5.64-4.45A5.57,5.57,0,0,0,196,92.87c-1.27,1.32-1.65,2.82-1.65,8.87s.38,7.54,1.65,8.86a5.57,5.57,0,0,0,4.18,1.63,5.44,5.44,0,0,0,5.64-4.46h6.63C211.26,114.34,206.33,117.7,200.13,117.7Z" transform="translate(-34.79 -70.48)"/><path class="cls-2" d="M237.58,117.43l-2-5.56H223.71l-2,5.56h-6.81L227.05,86h5.12l12.22,31.4Zm-7.8-22.14-4.23,11.42h8.32Z" transform="translate(-34.79 -70.48)"/><path class="cls-2" d="M267.23,117.43l-6.53-12.52H256v12.52h-6.53V86h13.11c6.81,0,10.86,4.37,10.86,9.61a8.51,8.51,0,0,1-6.11,8.25l7.47,13.54ZM262.15,91.5H256v8.29h6.16c2.87,0,4.75-1.72,4.75-4.15S265,91.5,262.15,91.5Z" transform="translate(-34.79 -70.48)"/><path class="cls-2" d="M302,114.43a12.66,12.66,0,0,1-8.83,3H281.13V86h12.08A12.66,12.66,0,0,1,302,89c3.76,3.53,3.38,7.85,3.38,12.57S305.8,110.91,302,114.43Zm-4.56-21a6,6,0,0,0-4.89-1.94h-4.93V112h4.93a6,6,0,0,0,4.89-1.94c1.22-1.41,1.41-3.66,1.41-8.42S298.71,94.85,297.48,93.44Z" transform="translate(-34.79 -70.48)"/><polygon class="cls-2" points="295.02 66.08 273.87 66.08 273.87 60.45 289.39 60.45 289.39 5.63 274.33 5.63 274.33 0 295.02 0 295.02 66.08"/><polygon class="cls-2" points="0 66.08 21.15 66.08 21.15 60.45 5.63 60.45 5.63 5.63 20.69 5.63 20.69 0 0 0 0 66.08"/><path class="cls-2" d="M312.13,88.5a2.68,2.68,0,1,1-2.67-2.61A2.62,2.62,0,0,1,312.13,88.5Zm-4.69,0a2,2,0,0,0,2,2.08,2,2,0,0,0,2-2.07,2,2,0,1,0-4,0ZM309,89.87h-.6V87.26a5.25,5.25,0,0,1,1-.08,1.64,1.64,0,0,1,.91.19.73.73,0,0,1,.25.57.67.67,0,0,1-.54.6v0a.77.77,0,0,1,.48.64,2,2,0,0,0,.19.65h-.65a2.28,2.28,0,0,1-.21-.64c0-.29-.21-.41-.54-.41H309Zm0-1.48h.29c.33,0,.6-.11.6-.38s-.17-.4-.56-.4a1.48,1.48,0,0,0-.33,0Z" transform="translate(-34.79 -70.48)"/></svg>