<svg xmlns="http://www.w3.org/2000/svg" viewBox="0 0 180 39.81"><defs><style>.a{fill:#fff;}.b{fill:#f58220;}</style></defs><title>TitleCard_LogoWO_Center</title><path class="a" d="M60.92,39.81a3.19,3.19,0,0,1-2.05-.68c-0.77-.6-0.76-1.33-0.76-2.55s0-1.93.76-2.55a3.19,3.19,0,0,1,2.05-.68,2.58,2.58,0,0,1,2.79,2H62.49a1.51,1.51,0,0,0-1.58-1.09,1.76,1.76,0,0,0-1.15.39c-0.38.34-.47,0.7-0.47,2s0.09,1.64.47,2a1.76,1.76,0,0,0,1.15.39,1.52,1.52,0,0,0,1.59-1.09h1.22A2.61,2.61,0,0,1,60.92,39.81Z" transform="translate(1.17)"/><path class="a" d="M74.06,39.75l-0.54-1.28H70.43L69.9,39.75H68.63l2.87-6.36h1l2.87,6.36H74.06ZM72,34.83l-1.22,2.82h2.4Z" transform="translate(1.17)"/><path class="a" d="M83.77,37.25H82v2.5H80.81V33.39h3c1.53,0,2.5.82,2.5,1.93S85.32,37.25,83.77,37.25Zm-0.07-3H82v2.12H83.7a1.17,1.17,0,0,0,1.38-1.05,1.14,1.14,0,0,0-1.36-1Z" transform="translate(1.17)"/><path class="a" d="M92.12,39.75V33.39H93.3v6.36H92.12Z" transform="translate(1.17)"/><path class="a" d="M102.38,34.26v5.49H101.2V34.26H99V33.39h5.49v0.87h-2.13Z" transform="translate(1.17)"/><path class="a" d="M114.11,39.75l-0.54-1.28h-3.09l-0.54,1.28h-1.26l2.87-6.36h1l2.87,6.36h-1.26Zm-2.05-4.92-1.22,2.82h2.4Z" transform="translate(1.17)"/><path class="a" d="M120.87,39.75V33.39h1.18v5.49h3.76v0.87h-4.95Z" transform="translate(1.17)"/><path class="a" d="M23.08,12.66V28.27h-4V12.66H13.76V9.35H28.4v3.31H23.08Z" transform="translate(1.17)"/><path class="a" d="M32.22,28.27V9.35h4V28.26Z" transform="translate(1.17)"/><path class="a" d="M49.34,12.66V28.27h-4V12.66H40V9.35H54.66v3.31H49.34Z" transform="translate(1.17)"/><path class="a" d="M58.48,28.27V9.35h4V25h9.26V28.3Z" transform="translate(1.17)"/><path class="a" d="M75.54,28.27V9.35H89v3.31H79.5V17.1h8.05v3.29H79.5V25H89V28.3Z" transform="translate(1.17)"/><path class="b" d="M99.71,28.44a7.84,7.84,0,0,1-5.49-2.07c-2.06-1.91-2-4.28-2-7.54s-0.06-5.63,2-7.55a7.84,7.84,0,0,1,5.49-2.07c3.81,0,6.8,2,7.51,6h-4a3.31,3.31,0,0,0-3.44-2.68,3.42,3.42,0,0,0-2.54,1c-0.77.79-1,1.7-1,5.34s0.23,4.54,1,5.34a3.42,3.42,0,0,0,2.55,1,3.31,3.31,0,0,0,3.44-2.69h4C106.5,26.41,103.49,28.44,99.71,28.44Z" transform="translate(1.17)"/><path class="b" d="M122.56,28.27l-1.22-3.35H114.1l-1.22,3.35h-4.15l7.41-18.93h3.12l7.46,18.91ZM117.8,14.94l-2.58,6.88h5.08Z" transform="translate(1.17)"/><path class="b" d="M140.65,28.27l-4-7.54H133.8v7.54h-4V9.35h8c4.15,0,6.63,2.63,6.63,5.79a5.13,5.13,0,0,1-3.73,5l4.56,8.15Zm-3.1-15.61H133.8v5h3.76c1.75,0,2.9-1,2.9-2.5S139.29,12.66,137.55,12.66Z" transform="translate(1.17)"/><path class="b" d="M161.86,26.47a7.79,7.79,0,0,1-5.39,1.81h-7.35V9.35h7.37a7.79,7.79,0,0,1,5.36,1.81c2.29,2.13,2.06,4.73,2.06,7.57S164.18,24.35,161.86,26.47Zm-2.78-12.65a3.69,3.69,0,0,0-3-1.17h-3V25h3a3.69,3.69,0,0,0,3-1.17c0.74-.85.86-2.2,0.86-5.07s-0.09-4.09-.84-4.94h0Z" transform="translate(1.17)"/><polygon class="b" points="180 39.79 167.1 39.79 167.1 36.4 176.56 36.4 176.56 3.39 167.38 3.39 167.38 0 180 0 180 39.79"/><polygon class="b" points="0 39.79 12.9 39.79 12.9 36.4 3.44 36.4 3.44 3.39 12.62 3.39 12.62 0 0 0 0 39.79"/><path class="b" d="M168,10.85a1.64,1.64,0,1,1-1.68-1.57h0A1.59,1.59,0,0,1,168,10.83v0Zm-2.86,0a1.21,1.21,0,0,0,1.17,1.25h0a1.21,1.21,0,0,0,1.22-1.2s0,0,0,0a1.22,1.22,0,0,0-2.44,0h0Zm1,0.83h-0.37V10.1a3.24,3.24,0,0,1,.61,0,1,1,0,0,1,.56.11,0.44,0.44,0,0,1,.15.34,0.41,0.41,0,0,1-.33.36h0a0.46,0.46,0,0,1,.29.39,1.19,1.19,0,0,0,.12.39h-0.4a1.36,1.36,0,0,1-.13-0.39,0.26,0.26,0,0,0-.33-0.25h-0.18v0.66Zm0-.89h0.18c0.2,0,.37-0.07.37-0.23s-0.1-.24-0.34-0.24h-0.2v0.47Z" transform="translate(1.17)"/></svg>