<?xml version="1.0" encoding="utf-8"?>
<!-- Generator: Adobe Illustrator 18.1.1, SVG Export Plug-In . SVG Version: 6.00 Build 0)  -->
<!DOCTYPE svg PUBLIC "-//W3C//DTD SVG 1.1//EN" "http://www.w3.org/Graphics/SVG/1.1/DTD/svg11.dtd">
<svg version="1.1" id="Layer_1" xmlns="http://www.w3.org/2000/svg" xmlns:xlink="http://www.w3.org/1999/xlink" x="0px" y="0px"
	 width="222.2px" height="51.3px" viewBox="0 0 222.2 51.3" enable-background="new 0 0 222.2 51.3" xml:space="preserve">
<g>
	<polygon fill="#F58220" points="222.2,49.8 206.3,49.8 206.3,45.5 218,45.5 218,4.2 206.6,4.2 206.6,0 222.2,0 	"/>
</g>
<g>
	<polygon fill="#F58220" points="0,49.8 15.9,49.8 15.9,45.5 4.2,45.5 4.2,4.2 15.6,4.2 15.6,0 0,0 	"/>
</g>
<g>
	<path fill="#F37021" d="M207.4,11v0.3h-0.6v1.4h-0.4v-1.4h-0.6V11H207.4z M209.5,12.6l-0.1-1c0-0.1,0-0.3,0-0.5h0
		c-0.1,0.1-0.1,0.3-0.2,0.5l-0.4,0.9h-0.4l-0.4-0.9c0-0.1-0.1-0.3-0.1-0.5h0c0,0.2,0,0.3,0,0.5l-0.1,1h-0.4l0.1-1.7h0.6l0.3,0.8
		c0,0.1,0.1,0.2,0.1,0.4h0c0.1-0.2,0.1-0.3,0.1-0.4l0.3-0.8h0.6l0.2,1.7H209.5z"/>
</g>
<g>
	<path fill="#FFFFFF" d="M75.6,48c-0.5,0.2-1.4,0.4-2.6,0.4c-2.8,0-4.8-1.4-4.8-4.1c0-2.5,2.1-4.2,5.1-4.2c1.2,0,2,0.2,2.3,0.4
		l-0.3,0.9c-0.5-0.2-1.2-0.3-2-0.3c-2.3,0-3.8,1.2-3.8,3.3c0,2,1.4,3.2,3.8,3.2c0.8,0,1.6-0.1,2.1-0.3L75.6,48z"/>
	<path fill="#FFFFFF" d="M84.6,45.7l-1,2.5h-1.3l3.3-8.1h1.5l3.3,8.1h-1.4l-1-2.5H84.6z M87.8,44.9l-1-2.3c-0.2-0.5-0.4-1-0.5-1.5h0
		c-0.1,0.5-0.3,1-0.5,1.5l-1,2.3H87.8z"/>
	<path fill="#FFFFFF" d="M97.8,40.3c0.6-0.1,1.4-0.2,2.4-0.2c1.3,0,2.2,0.2,2.8,0.7c0.5,0.4,0.9,1,0.9,1.7c0,0.7-0.3,1.3-0.8,1.7
		c-0.7,0.6-1.8,0.9-3,0.9c-0.4,0-0.7,0-1-0.1v3.2h-1.3V40.3z M99,44.2c0.3,0.1,0.6,0.1,1,0.1c1.5,0,2.5-0.6,2.5-1.7
		c0-1.1-0.9-1.6-2.3-1.6c-0.6,0-1,0-1.2,0.1V44.2z"/>
	<path fill="#FFFFFF" d="M112.6,40.2v8.1h-1.3v-8.1H112.6z"/>
	<path fill="#FFFFFF" d="M122.5,41.1h-3v-0.9h7.3v0.9h-3v7.2h-1.3V41.1z"/>
	<path fill="#FFFFFF" d="M134.2,45.7l-1,2.5h-1.3l3.3-8.1h1.5l3.3,8.1h-1.4l-1-2.5H134.2z M137.4,44.9l-1-2.3
		c-0.2-0.5-0.4-1-0.5-1.5h0c-0.1,0.5-0.3,1-0.5,1.5l-1,2.3H137.4z"/>
	<path fill="#FFFFFF" d="M147.3,40.2h1.3v7.2h4.2v0.9h-5.5V40.2z"/>
</g>
<g>
	<g>
		<path fill="#FFFFFF" d="M29.5,14.6v19.5h-4.9V14.6H18v-4.1h18.1v4.1H29.5z"/>
		<path fill="#FFFFFF" d="M40.8,34.2V10.5h4.9v23.7H40.8z"/>
		<path fill="#FFFFFF" d="M61.9,14.6v19.5H57V14.6h-6.6v-4.1h18.1v4.1H61.9z"/>
		<path fill="#FFFFFF" d="M73.2,34.2V10.5h4.9V30h11.4v4.1H73.2z"/>
		<path fill="#FFFFFF" d="M94.3,34.2V10.5h16.6v4.1H99.2v5.5h9.9v4.1h-9.9V30h11.7v4.1H94.3z"/>
	</g>
	<g>
		<path fill="#F58220" d="M124.1,34.4c-2.8,0-5-0.9-6.8-2.6c-2.5-2.4-2.5-5.3-2.5-9.4c0-4.1-0.1-7,2.5-9.4c1.8-1.7,4-2.6,6.8-2.6
			c4.7,0,8.4,2.5,9.3,7.5h-5c-0.5-1.9-1.8-3.4-4.2-3.4c-1.3,0-2.4,0.5-3.1,1.2c-1,1-1.2,2.1-1.2,6.7c0,4.5,0.3,5.7,1.2,6.7
			c0.7,0.8,1.8,1.2,3.1,1.2c2.5,0,3.8-1.5,4.2-3.4h5C132.5,31.8,128.8,34.4,124.1,34.4z"/>
		<path fill="#F58220" d="M152.3,34.2l-1.5-4.2h-9l-1.5,4.2h-5.1l9.2-23.7h3.9l9.2,23.7H152.3z M146.4,17.5l-3.2,8.6h6.3L146.4,17.5
			z"/>
		<path fill="#F58220" d="M174.6,34.2l-4.9-9.4h-3.5v9.4h-4.9V10.5h9.9c5.1,0,8.2,3.3,8.2,7.2c0,3.3-2.2,5.4-4.6,6.2l5.6,10.2H174.6
			z M170.8,14.6h-4.6v6.2h4.6c2.2,0,3.6-1.3,3.6-3.1C174.4,15.9,173,14.6,170.8,14.6z"/>
		<path fill="#F58220" d="M200.9,31.9c-1.7,1.6-4,2.3-6.7,2.3h-9.1V10.5h9.1c2.6,0,5,0.7,6.7,2.3c2.8,2.7,2.5,5.9,2.5,9.5
			C203.4,25.8,203.7,29.2,200.9,31.9z M197.4,16.1c-0.8-1-2-1.5-3.7-1.5H190V30h3.7c1.7,0,2.8-0.5,3.7-1.5c0.9-1.1,1.1-2.8,1.1-6.3
			C198.5,18.6,198.3,17.1,197.4,16.1z"/>
	</g>
</g>
</svg>
